<svg width="500" height="500" viewBox="0 0 500 500" fill="none" xmlns="http://www.w3.org/2000/svg">
    <path
        d="M69.3272 35.4175C68.2768 36.667 79.2011 53.3279 120.168 112.266C135.083 133.717 163.865 175.577 190.966 215.147L202.941 232.641L199.369 239.097C194.747 246.802 118.907 357.597 106.512 374.466C101.47 381.131 97.8986 387.587 98.5289 388.42C99.7894 390.711 160.504 390.919 163.655 388.628C164.705 387.795 175.21 373.633 186.554 356.972C206.512 327.816 242.857 275.126 284.873 214.314C295.798 198.277 313.655 172.661 324.159 157.458L343.487 129.968H353.571C359.243 129.968 364.285 130.801 365.125 131.842C366.176 133.717 353.361 152.668 275.21 266.171L250.84 301.575L270.378 329.69C281.092 345.31 302.31 376.341 317.857 398.624C333.193 420.908 349.999 445.067 355.041 452.147L364.285 465.06L397.058 465.684C421.638 466.101 430.041 465.684 430.672 463.81C431.302 462.352 427.52 455.688 422.689 448.815C417.647 442.151 404.411 422.991 393.067 406.747C368.487 370.301 344.327 335.313 319.957 300.742C309.873 286.372 300.63 272.835 299.579 270.544C297.478 266.795 300.21 261.797 319.327 234.098C331.722 216.396 355.041 182.033 371.638 158.083L401.68 114.348L367.857 113.724C342.436 113.307 333.193 113.932 331.302 115.806C329.831 117.264 316.596 136.216 301.68 158.083C257.142 223.061 237.815 250.967 226.89 266.379C221.218 274.293 206.302 295.952 193.907 314.279C153.361 373.633 156.092 370.509 145.798 371.134C140.756 371.551 135.714 370.926 134.663 369.884C133.403 368.635 137.394 361.346 144.957 350.516C158.193 331.773 182.352 296.993 214.495 249.718C225.42 233.682 237.604 216.188 241.596 210.565C245.378 205.15 248.529 199.944 248.529 198.902C248.529 197.236 224.159 161.207 193.697 117.472C188.445 109.975 175.84 91.6479 165.546 76.8614C155.252 61.8666 144.117 46.247 140.756 41.8736L134.663 34.1679H102.731C85.0835 34.1679 70.1675 34.7927 69.3272 35.4175Z"
        fill="#1c9cf0" />
</svg>